<?xml version="1.0" encoding="UTF-8" standalone="no"?>
<svg
   viewBox="0 0 512 512"
   version="1.1"
   id="svg2"
   sodipodi:docname="cantrip-hobbyist.svg"
   inkscape:version="1.4.2 (f4327f4, 2025-05-13)"
   xmlns:inkscape="http://www.inkscape.org/namespaces/inkscape"
   xmlns:sodipodi="http://sodipodi.sourceforge.net/DTD/sodipodi-0.dtd"
   xmlns="http://www.w3.org/2000/svg"
   xmlns:svg="http://www.w3.org/2000/svg">
  <defs
     id="defs2" />
  <sodipodi:namedview
     id="namedview2"
     pagecolor="#ffffff"
     bordercolor="#000000"
     borderopacity="0.25"
     inkscape:showpageshadow="2"
     inkscape:pageopacity="0.0"
     inkscape:pagecheckerboard="0"
     inkscape:deskcolor="#d1d1d1"
     inkscape:zoom="2.1601562"
     inkscape:cx="255.76854"
     inkscape:cy="256"
     inkscape:window-width="3440"
     inkscape:window-height="1351"
     inkscape:window-x="2551"
     inkscape:window-y="-9"
     inkscape:window-maximized="1"
     inkscape:current-layer="svg2" />
  <path
     d="M0 0h512v512H0z"
     id="path1" />
  <path
     fill="#fff"
     d="M319.61 20.654c13.145 33.114 13.144 33.115-5.46 63.5 33.114-13.145 33.116-13.146 63.5 5.457-13.145-33.114-13.146-33.113 5.457-63.498-33.114 13.146-33.113 13.145-63.498-5.459zM113.024 38.021c-11.808 21.04-11.808 21.04-35.724 24.217 21.04 11.809 21.04 11.808 24.217 35.725 11.808-21.04 11.808-21.04 35.724-24.217-21.04-11.808-21.04-11.808-24.217-35.725zm76.55 56.184c-.952 50.588-.95 50.588-41.991 80.18 50.587.95 50.588.95 80.18 41.99.95-50.588.95-50.588 41.99-80.18-50.588-.95-50.588-.95-80.18-41.99zm191.177 55.885c-.046 24.127-.048 24.125-19.377 38.564 24.127.047 24.127.046 38.566 19.375.047-24.126.046-24.125 19.375-38.564-24.126-.047-24.125-.046-38.564-19.375zm-184.086 83.88a96.38 96.38 0 0 0-3.492.134c-18.591 1.064-41.868 8.416-77.445 22.556L76.012 433.582c78.487-20.734 132.97-21.909 170.99-4.615V247.71c-18.076-8.813-31.79-13.399-46.707-13.737a91.166 91.166 0 0 0-3.629-.002zm122.686 11.42a209.3 209.3 0 0 0-8.514.098c-12.81.417-27.638 2.215-45.84 4.522v177.135c43.565-7.825 106.85-4.2 171.244 7.566l-39.78-177.197c-35.904-8.37-56.589-11.91-77.11-12.123zm2.289 16.95c18.889.204 36.852 2.768 53.707 5.02l4.437 16.523c-23.78-3.75-65.966-4.906-92.467-.98l-.636-17.805c11.959-2.154 23.625-2.88 34.959-2.758zm-250.483 4.658L60.54 313.002h24.094l10.326-46.004H71.158zm345.881 0 39.742 177.031 2.239 9.973 22.591-.152-40.855-186.852h-23.717zm-78.857 57.82c16.993.026 33.67.791 49.146 2.223l3.524 17.174c-32.645-3.08-72.58-2.889-102.995 0l-.709-17.174c16.733-1.533 34.04-2.248 51.034-2.223zm-281.793 6.18-6.924 30.004h24.394l6.735-30.004H56.389zm274.418 27.244c4.656.021 9.487.085 14.716.203l2.555 17.498c-19.97-.471-47.115.56-59.728 1.05l-.7-17.985c16.803-.493 29.189-.828 43.157-.766zm41.476.447c8.268.042 16.697.334 24.121.069l2.58 17.74c-8.653-.312-24.87-.83-32.064-.502l-2.807-17.234a257.25 257.25 0 0 1 8.17-.073zm-326.97 20.309-17.985 77.928 25.035-.17 17.455-77.758H45.313zm303.164 11.848c19.608-.01 38.66.774 56.449 2.572l2.996 20.787c-34.305-4.244-85.755-7.697-119.1-3.244l-.14-17.922c20.02-1.379 40.186-2.183 59.795-2.193zm-166.606 44.05c-30.112.09-67.916 6.25-115.408 19.76l-7.22 2.053 187.759-1.27v-6.347c-16.236-9.206-37.42-14.278-65.13-14.196zm134.41 6.174c-19.63.067-37.112 1.439-51.283 4.182v10.064l177.594-1.203c-44.322-8.634-89.137-13.17-126.31-13.043zM26 475v18h460v-18H26z"
     id="path2" />
  <path
     style="fill:#ffff00;stroke:#000000;stroke-width:1.98936;stroke-linecap:round;stroke-linejoin:round;stroke-dashoffset:50;paint-order:fill markers stroke"
     d="M 101.42915,95.295042 C 99.485079,82.909035 98.848734,80.057524 97.391136,77.200396 95.401669,73.300719 91.303793,69.854776 83.211573,65.276668 80.85642,63.944259 78.929476,62.705263 78.929476,62.523345 c 0,-0.181919 2.031103,-0.588228 4.513562,-0.90291 9.40651,-1.192391 14.837476,-3.001789 18.400872,-6.130496 1.75636,-1.5421 6.48975,-8.440396 9.08634,-13.242132 0.85889,-1.588299 1.68184,-2.890288 1.82879,-2.893309 0.14695,-0.003 0.52465,2.02561 0.83933,4.50807 0.70806,5.585711 2.0909,11.629155 3.27182,14.298805 1.81908,4.112327 6.81522,8.302396 15.92622,13.356679 2.14331,1.188991 2.97127,1.871121 2.54611,2.097652 -0.34652,0.184633 -2.71148,0.591808 -5.25547,0.904832 -8.07187,0.993206 -13.04483,2.608908 -16.77796,5.451117 -1.97581,1.504283 -5.39121,6.201572 -8.66691,11.919848 -1.45853,2.546112 -2.72334,4.70266 -2.81067,4.792329 -0.0873,0.08967 -0.26839,-0.535285 -0.40236,-1.388788 z"
     id="path3" />
  <path
     style="fill:#00ffff;stroke:#000000;stroke-width:1.98936;stroke-linecap:round;stroke-linejoin:round;stroke-dashoffset:50;paint-order:fill markers stroke"
     d="m 226.07947,213.58797 c -2.69889,-4.08673 -13.90568,-18.71623 -17.26632,-22.53969 -7.7806,-8.85216 -15.06748,-13.07456 -25.68886,-14.8855 -5.03553,-0.85855 -15.24517,-1.61828 -22.71923,-1.6906 -3.18264,-0.0308 -7.08563,-0.18788 -8.67331,-0.34907 l -2.8867,-0.29309 7.21201,-5.26134 c 21.8399,-15.93274 27.62499,-22.37731 30.75764,-34.26385 1.44336,-5.47668 2.31899,-14.47685 2.66731,-27.41595 l 0.31907,-11.85253 5.55516,7.62759 c 19.87081,27.28392 25.93609,31.24734 50.45931,32.97311 3.56456,0.25085 9.29331,0.46992 12.73056,0.48683 3.43725,0.0169 7.06133,0.17502 8.0535,0.35135 l 1.80395,0.32061 -7.48958,5.47316 c -14.82219,10.83162 -22.52969,17.85012 -26.13869,23.80208 -4.87114,8.03348 -6.14058,15.32242 -7.15097,41.05986 l -0.32595,8.30273 z"
     id="path4" />
  <path
     style="fill:#800080;stroke:#000000;stroke-width:1.98936;stroke-linecap:round;stroke-linejoin:round;stroke-dashoffset:50;paint-order:fill markers stroke"
     d="m 370.34358,84.90552 c -7.37713,-4.553268 -12.65721,-7.262521 -17.14167,-8.795549 -3.03118,-1.036216 -4.51684,-1.264135 -8.31945,-1.276315 -5.67818,-0.01819 -10.06827,1.095805 -21.56041,5.470993 -4.38681,1.670106 -8.02939,2.981349 -8.09461,2.913877 -0.0652,-0.06748 1.64638,-3.039141 3.80356,-6.603698 4.31194,-7.125114 7.51481,-13.437021 8.80896,-17.359855 0.6476,-1.963014 0.83212,-3.924344 0.8057,-8.564195 -0.0388,-6.807135 -0.55465,-8.837031 -5.53159,-21.765187 -1.43626,-3.730828 -2.52692,-6.867772 -2.42371,-6.970987 0.10322,-0.103215 2.98469,1.496445 6.40326,3.554801 7.58863,4.569178 13.04114,7.335742 17.32591,8.791037 2.61374,0.88774 4.18066,1.098522 8.10127,1.089778 5.93099,-0.01323 10.10717,-1.073944 21.51355,-5.464269 4.32142,-1.663319 7.90371,-2.977648 7.96062,-2.92073 0.0569,0.05692 -1.57515,2.909633 -3.62681,6.339368 -4.6542,7.780345 -8.4378,15.548008 -9.3838,19.264728 -1.73376,6.811811 -0.63699,13.337338 4.55773,27.11736 1.67807,4.451414 3.05104,8.22834 3.05104,8.393166 0,0.569306 -0.71613,0.200981 -6.24955,-3.214323 z"
     id="path5" />
  <path
     style="fill:#d45500;stroke:#000000;stroke-width:1.98936;stroke-linecap:round;stroke-linejoin:round;stroke-dashoffset:50;paint-order:fill markers stroke"
     d="m 396.26763,202.65354 c -4.35493,-5.7524 -8.76406,-10.16349 -11.57324,-11.57839 -3.28643,-1.65527 -6.79063,-2.26158 -15.02184,-2.59912 l -7.19877,-0.2952 4.16636,-3.14721 c 5.19697,-3.92571 9.69317,-8.28409 11.20447,-10.86103 2.09529,-3.5727 2.54222,-5.89027 2.85248,-14.79146 l 0.29387,-8.43081 3.9349,5.1223 c 4.36417,5.68111 8.36648,9.64513 11.19552,11.0884 3.00655,1.53382 7.53148,2.25392 14.2656,2.27022 3.43725,0.008 6.51714,0.18491 6.84419,0.39243 0.41468,0.26312 -0.70615,1.36946 -3.70344,3.65557 -5.16787,3.94167 -9.30056,7.97055 -10.7994,10.52812 -1.82792,3.11911 -2.62012,7.2811 -2.93158,15.40172 l -0.28861,7.52482 z"
     id="path6" />
</svg>
