<?xml version="1.0" encoding="UTF-8" standalone="no"?>
<svg
   viewBox="0 0 512 512"
   version="1.1"
   id="svg2"
   sodipodi:docname="fist.svg"
   inkscape:version="1.4.2 (f4327f4, 2025-05-13)"
   xmlns:inkscape="http://www.inkscape.org/namespaces/inkscape"
   xmlns:sodipodi="http://sodipodi.sourceforge.net/DTD/sodipodi-0.dtd"
   xmlns="http://www.w3.org/2000/svg"
   xmlns:svg="http://www.w3.org/2000/svg">
  <defs
     id="defs2" />
  <sodipodi:namedview
     id="namedview2"
     pagecolor="#ffffff"
     bordercolor="#000000"
     borderopacity="0.25"
     inkscape:showpageshadow="2"
     inkscape:pageopacity="0.0"
     inkscape:pagecheckerboard="0"
     inkscape:deskcolor="#d1d1d1"
     inkscape:zoom="2.1601562"
     inkscape:cx="255.76854"
     inkscape:cy="256"
     inkscape:window-width="3440"
     inkscape:window-height="1351"
     inkscape:window-x="2551"
     inkscape:window-y="-9"
     inkscape:window-maximized="1"
     inkscape:current-layer="svg2" />
  <path
     d="M0 0h512v512H0z"
     id="path1" />
  <path
     fill="#fff"
     d="M227.227 21.777c-1.845 0-3.704.05-5.567.157-15.314.875-30.76 5.305-39.494 10.863l-.008 73.15c2.884-.094 5.777-.147 8.676-.142 23.382.036 47.104 3.286 68.47 9.513l.01-87.507c-7.034-3.518-19.178-6.03-32.087-6.033zm80.74 9.16c-11.925.15-23.077 2.364-29.967 5.596l-.008 77.602v7.658c38.486 15.67 64.814 42.48 58.735 78.764l-.96 5.73-5.562 1.674c-17.45 5.253-34.872 9.703-52.225 13.335v25.234c25.562-.704 51.327-2.687 77.145-6.098l.02-197.928c-8.284-5.563-23.508-10.243-38.842-11.328a100.065 100.065 0 0 0-8.336-.238zM143.223 46.294a99.206 99.206 0 0 0-16.491 1.172c-15.67 2.454-31.477 8.565-40.406 15.402l-.01 72.955c18.808-15.81 46.704-25.143 77.15-28.54l.007-57.966c-4.82-1.752-12.018-2.916-20.25-3.023zm258.394 3.46c-10.804.117-20.722 1.93-27.043 4.655l-.02 183.182c25.074-4.02 50.16-9.412 75.122-16.358l1.99-158.447c-8.352-5.9-23.648-11.025-39.05-12.553a100.98 100.98 0 0 0-11-.478zm-222.775 74.202c-53.72.702-101.407 20.365-97.887 66.6 15.836-3.918 30.84-5.893 44.94-6.1 34.84-.51 64.213 9.704 87.318 27.613 34.608-3.11 69.852-10 105.412-20.314.14-41.287-74.098-68.657-139.783-67.8zm-48.877 78.65c-1.296-.003-2.603.012-3.92.045-17.256.436-36.45 4.03-57.566 11.037 5.79 53.808 26.325 106.41 58.5 143.346 6.226 7.15 12.856 13.712 19.875 19.615 29.303 9.282 69.26 12.917 110.534 12.14 3.777-55.805-8.717-108.357-36.193-142.74-21.265-26.61-51.064-43.39-91.232-43.444zm129.326 22.282a545.177 545.177 0 0 1-27.995 4.15 138.77 138.77 0 0 1 4.502 5.346c3.146 3.937 6.094 8.062 8.873 12.334 9.916.144 19.868.125 29.857-.106H259.29v-21.723zm191.817 15.343c-65.406 17.826-131.462 25.41-195.85 25.315 16.998 35.144 23.828 78.093 21.013 122.6 42.482-2.08 85.03-8.23 118.187-15.983 26.693-32.78 47.37-77.118 56.65-131.932zM400.51 389.9c-38.334 9.145-87.95 16.056-136.873 17.454-47.67 1.36-94.336-2.228-129.448-15.262l-.01 78.93c27.187 12.568 76.414 20.205 127.318 20.298 51.224.094 104.214-7.173 139-20.773l.012-80.647z"
     id="path2" />
  <path
     style="fill:#aa4400;stroke:#000000;stroke-width:1.98936;stroke-linecap:round;stroke-linejoin:round;stroke-dashoffset:50;paint-order:fill markers stroke"
     d="m 230.07595,388.40615 c -31.5477,-1.05711 -59.90518,-5.0044 -80.45497,-11.19912 -3.04175,-0.91694 -3.39978,-1.19526 -10.83067,-8.41943 -8.39815,-8.16452 -14.26985,-14.75801 -20.49133,-23.01025 C 92.592515,311.67998 74.726532,264.76414 69.004072,216.32955 l -0.284103,-2.40464 4.526092,-1.45261 c 11.365726,-3.64776 26.401339,-6.9805 38.910599,-8.62478 8.27148,-1.08724 26.48909,-1.08704 34.36052,3.9e-4 23.01304,3.17922 41.87009,11.53561 58.73155,26.02657 15.76637,13.54982 28.73098,32.56035 37.70617,55.29008 7.76102,19.65485 12.43457,41.33251 14.2221,65.96745 0.54688,7.53689 0.47455,36.46391 -0.0926,37.03044 -0.50694,0.5064 -15.20971,0.63906 -27.00846,0.2437 z"
     id="path3" />
  <path
     style="fill:#aa4400;stroke:#000000;stroke-width:1.98936;stroke-linecap:round;stroke-linejoin:round;stroke-dashoffset:50;paint-order:fill markers stroke"
     d="m 212.8892,211.46434 c -0.13381,-0.21651 -3.39902,-2.48661 -7.25602,-5.04467 -16.99586,-11.27209 -36.0139,-18.19092 -57.95868,-21.08557 -7.56751,-0.9982 -29.32223,-1.14051 -37.26582,-0.24379 -7.09831,0.80131 -18.08342,2.61445 -24.072333,3.97325 -2.673418,0.60657 -4.953395,1.01481 -5.066617,0.90722 -0.53959,-0.51279 0.06045,-11.01935 0.842494,-14.75197 3.449911,-16.46601 14.126587,-28.86841 32.694286,-37.97881 26.28572,-12.89733 66.33694,-16.50263 107.39964,-9.66783 52.71467,8.77426 90.77251,31.79561 95.55291,57.80037 0.75819,4.12442 0.66153,6.17088 -0.30517,6.461 -15.23707,4.57291 -41.50479,10.71403 -59.6562,13.947 -17.69943,3.15247 -44.38553,6.52997 -44.90849,5.6838 z"
     id="path4" />
  <path
     style="fill:#aa4400;stroke:#000000;stroke-width:1.98936;stroke-linecap:round;stroke-linejoin:round;stroke-dashoffset:50;paint-order:fill markers stroke"
     d="m 276.82698,369.76496 c -0.005,-18.42009 -0.2805,-23.31237 -2.10016,-37.28299 -2.75038,-21.11631 -8.5177,-42.84165 -15.69488,-59.12211 -1.57142,-3.56456 -2.97083,-6.74142 -3.10979,-7.05968 -0.19692,-0.45097 1.62254,-0.57998 8.24532,-0.58465 9.3332,-0.007 27.12505,-0.63047 39.74573,-1.39373 46.80817,-2.83082 92.47476,-9.84727 135.60077,-20.83443 5.9627,-1.51911 10.92883,-2.67446 11.03585,-2.56745 0.25674,0.25674 -1.39368,8.90713 -3.40709,17.85766 -9.25206,41.12968 -26.53933,79.22353 -49.27682,108.58534 l -3.62121,4.6762 -10.3303,2.16058 c -31.26044,6.53811 -62.03605,10.71036 -96.20373,13.04234 -5.47414,0.37362 -10.1613,0.68237 -10.41591,0.68612 -0.3008,0.004 -0.46463,-6.35711 -0.46778,-18.1632 z"
     id="path5" />
  <path
     style="fill:#aa4400;stroke:#000000;stroke-width:1.98936;stroke-linecap:round;stroke-linejoin:round;stroke-dashoffset:50;paint-order:fill markers stroke"
     d="m 277.98915,233.93465 v -12.45599 l 4.2821,-0.85014 c 12.57218,-2.496 52.16483,-13.12507 53.42149,-14.34156 0.82987,-0.80334 2.01431,-10.30697 2.01431,-16.16224 0,-27.20494 -18.72698,-50.07617 -54.27848,-66.29021 l -4.97649,-2.26964 V 79.101412 36.637951 l 2.66184,-1.00199 c 13.4428,-5.060227 33.89613,-5.784947 51.03798,-1.80842 6.44554,1.495223 12.90226,3.745243 17.82278,6.21084 l 4.6293,2.319666 0.11679,98.897763 0.1168,98.89777 -3.58877,0.51151 c -15.05974,2.14649 -43.14387,4.4528 -65.96851,5.41741 l -7.29114,0.30814 z"
     id="path6" />
  <path
     style="fill:#aa4400;stroke:#000000;stroke-width:1.98936;stroke-linecap:round;stroke-linejoin:round;stroke-dashoffset:50;paint-order:fill markers stroke"
     d="M 374.74141,145.98176 V 54.602762 l 1.27306,-0.488789 c 2.32237,-0.891675 9.55177,-2.663385 13.30922,-3.261694 5.77731,-0.919937 22.05797,-0.79536 28.2387,0.216078 12.71515,2.080756 28.08135,7.365103 32.92099,11.321335 l 0.97886,0.800181 -0.99755,78.793847 c -0.54865,43.33662 -1.09882,78.89513 -1.22259,79.01891 -0.37361,0.37361 -23.16851,6.12076 -33.0685,8.33737 -9.80997,2.19646 -24.52044,5.09998 -35.06691,6.92143 l -6.36528,1.09933 z"
     id="path7" />
  <path
     style="fill:#aa4400;stroke:#000000;stroke-width:1.98936;stroke-linecap:round;stroke-linejoin:round;stroke-dashoffset:50;paint-order:fill markers stroke"
     d="m 253.91682,113.60195 c -2.1642,-0.61816 -7.39281,-1.84061 -11.61914,-2.71657 -15.80105,-3.27494 -29.60592,-4.77648 -47.78009,-5.197 l -12.41188,-0.28719 0.0833,-35.687937 c 0.0518,-22.170519 0.25469,-36.014591 0.53572,-36.550351 0.90961,-1.734039 11.34659,-5.948661 20.25947,-8.1811 17.11214,-4.286135 39.04551,-3.587231 52.90004,1.685654 l 3.12477,1.189255 v 43.474898 c 0,34.492801 -0.11955,43.466571 -0.57866,43.434581 -0.31826,-0.0222 -2.34937,-0.54608 -4.51356,-1.16424 z"
     id="path8" />
  <path
     style="fill:#aa4400;stroke:#000000;stroke-width:1.98936;stroke-linecap:round;stroke-linejoin:round;stroke-dashoffset:50;paint-order:fill markers stroke"
     d="M 86.336347,99.127116 V 63.024181 l 3.356239,-2.090448 c 9.503025,-5.919002 22.917724,-10.774737 35.992764,-13.028347 11.60691,-2.000562 29.57776,-1.405848 36.44791,1.206179 l 1.04938,0.398973 v 28.704266 28.704266 l -1.04159,0.20888 c -0.57288,0.11489 -3.43725,0.54809 -6.36528,0.96266 -26.0508,3.6885 -50.01134,12.58047 -65.509941,24.31132 -1.582562,1.19784 -3.114107,2.32419 -3.403434,2.503 -0.39106,0.24169 -0.526048,-8.93917 -0.526048,-35.777814 z"
     id="path9" />
  <path
     style="fill:#aa4400;stroke:#000000;stroke-width:1.98936;stroke-linecap:round;stroke-linejoin:round;stroke-dashoffset:50;paint-order:fill markers stroke"
     d="m 241.88065,490.67024 c -41.42743,-1.71799 -80.73585,-8.60276 -103.46474,-18.12158 l -3.70343,-1.55099 -0.11835,-39.21674 c -0.0651,-21.5692 -0.0521,-39.21673 0.0289,-39.21673 0.081,0 2.00911,0.63442 4.28472,1.40983 45.5381,15.51701 121.0578,18.18058 202.03982,7.12591 18.47685,-2.52223 50.72977,-8.41363 58.44741,-10.67616 0.77119,-0.22608 0.80665,1.81299 0.69439,39.93372 l -0.11829,40.17196 -5.09223,1.79481 c -38.20888,13.46715 -97.93846,20.62931 -152.99819,18.34597 z"
     id="path10" />
  <path
     style="fill:#aa4400;stroke:#000000;stroke-width:1.98936;stroke-linecap:round;stroke-linejoin:round;stroke-dashoffset:50;paint-order:fill markers stroke"
     d="m 245.46168,246.42102 c -0.44924,-0.11715 -1.68403,-1.49913 -2.74397,-3.07108 -2.53326,-3.75695 -7.1316,-9.82022 -9.11069,-12.01317 -0.86775,-0.96152 -1.49354,-1.83241 -1.39064,-1.93531 0.14856,-0.14856 12.08208,-1.97184 25.05668,-3.82832 l 1.73598,-0.24839 v 10.70833 10.70833 l -6.36528,-0.0537 c -3.5009,-0.0295 -6.73284,-0.14955 -7.18208,-0.26669 z"
     id="path11" />
</svg>
